<svg width="26" height="26" viewBox="0 0 26 26" fill="none" xmlns="http://www.w3.org/2000/svg">
<path d="M13.0002 2.5C13.9419 2.50003 14.8422 2.69362 15.6624 3.04297C15.3203 3.42244 15.0321 3.85167 14.8137 4.32031C14.2463 4.11357 13.6354 4.00002 13.0002 4C10.2987 4 8.02906 6.03178 7.73071 8.7168L7.45825 11.1719C7.43916 11.3437 7.42812 11.4408 7.41528 11.5371C7.26605 12.6569 6.90101 13.7376 6.34106 14.7188C6.29294 14.8031 6.24247 14.887 6.15356 15.0352L5.52759 16.0791C5.19871 16.6272 4.98822 16.9801 4.86841 17.248C4.79849 17.4045 4.78494 17.4792 4.78247 17.5039C4.79162 17.5284 4.80527 17.5508 4.82153 17.5713C4.84393 17.5819 4.91475 17.6093 5.08521 17.6299C5.37667 17.665 5.7876 17.667 6.427 17.667H19.5735C20.2129 17.667 20.6238 17.665 20.9153 17.6299C21.084 17.6095 21.1549 17.5821 21.178 17.5713C21.1943 17.5508 21.2078 17.5285 21.217 17.5039C21.2145 17.4791 21.2019 17.4043 21.1321 17.248C21.0123 16.9801 20.8018 16.6272 20.4729 16.0791L19.8469 15.0352C19.758 14.887 19.7075 14.8031 19.6594 14.7188C19.1074 13.7516 18.7452 12.6877 18.592 11.585C18.887 11.6373 19.1903 11.666 19.5002 11.666C19.7088 11.666 19.9144 11.652 20.1165 11.6279C20.2605 12.4524 20.5466 13.2464 20.9622 13.9746C21.0004 14.0416 21.0408 14.1099 21.1331 14.2637L21.759 15.3066C22.0675 15.8208 22.3357 16.2655 22.5012 16.6357C22.6658 17.004 22.8047 17.4574 22.6545 17.9385C22.5803 18.176 22.4558 18.3952 22.2903 18.5811C21.9551 18.9571 21.4953 19.0708 21.095 19.1191C20.6924 19.1677 20.173 19.167 19.5735 19.167H6.427C5.8275 19.167 5.30815 19.1677 4.90552 19.1191C4.50514 19.0708 4.04546 18.957 3.71021 18.5811C3.54464 18.3952 3.42016 18.176 3.34595 17.9385C3.19579 17.4574 3.33463 17.004 3.49927 16.6357C3.66481 16.2655 3.93298 15.8208 4.24146 15.3066L4.86743 14.2637C4.95967 14.1099 5.00009 14.0416 5.03833 13.9746C5.50228 13.1616 5.80532 12.2667 5.92896 11.3389C5.93914 11.2624 5.94724 11.184 5.96704 11.0059L6.24048 8.55078C6.62323 5.10611 9.53437 2.5 13.0002 2.5ZM18.1213 4.82812C19.0075 5.84167 19.6014 7.12371 19.76 8.55078L19.7708 8.64746C19.6821 8.65852 19.5919 8.666 19.5002 8.66602L19.2786 8.65527C18.8723 8.61402 18.4991 8.46085 18.1907 8.22656C18.0421 7.50663 17.7497 6.84389 17.3459 6.2666C17.4079 5.68907 17.6964 5.17897 18.1213 4.82812Z" fill="#574964"/>
<path d="M9.86074 19.1367C10.0459 20.1733 10.4539 21.0893 11.0215 21.7426C11.5891 22.3959 12.2846 22.75 13 22.75C13.7154 22.75 14.4109 22.3959 14.9785 21.7426C15.5461 21.0893 15.9541 20.1733 16.1393 19.1367" stroke="#574964" stroke-width="1.5" stroke-linecap="round"/>
<circle cx="18.5" cy="7.5" r="3.5" fill="#EF466F"/>
</svg>
