<svg width="20" height="20" viewBox="0 0 20 20" fill="none" xmlns="http://www.w3.org/2000/svg">
<path fill-rule="evenodd" clip-rule="evenodd" d="M9.99984 16.6666C13.6817 16.6666 16.6665 13.6819 16.6665 9.99996C16.6665 6.31806 13.6817 3.33329 9.99984 3.33329C6.31794 3.33329 3.33317 6.31806 3.33317 9.99996C3.33317 13.6819 6.31794 16.6666 9.99984 16.6666ZM9.99984 18.3333C14.6022 18.3333 18.3332 14.6023 18.3332 9.99996C18.3332 5.39759 14.6022 1.66663 9.99984 1.66663C5.39746 1.66663 1.6665 5.39759 1.6665 9.99996C1.6665 14.6023 5.39746 18.3333 9.99984 18.3333Z" fill="#574964"/>
<path fill-rule="evenodd" clip-rule="evenodd" d="M9.99984 5.83337C9.5396 5.83337 9.1665 6.20647 9.1665 6.66671C9.1665 7.12694 9.5396 7.50004 9.99984 7.50004C10.4601 7.50004 10.8332 7.12694 10.8332 6.66671C10.8332 6.20647 10.4601 5.83337 9.99984 5.83337ZM9.99984 9.16671C9.5396 9.16671 9.1665 9.5398 9.1665 10V13.3334C9.1665 13.7936 9.5396 14.1667 9.99984 14.1667C10.4601 14.1667 10.8332 13.7936 10.8332 13.3334V10C10.8332 9.5398 10.4601 9.16671 9.99984 9.16671Z" fill="#574964"/>
</svg>
