<svg width="15" height="16" viewBox="0 0 15 16" fill="none" xmlns="http://www.w3.org/2000/svg">
<path fill-rule="evenodd" clip-rule="evenodd" d="M15 13.0392C15 15.6932 10.7197 16 7.50095 16L7.27061 15.9998C5.21989 15.9956 0 15.8855 0 13.0231C0 10.4233 4.10829 10.0758 7.30254 10.0627L7.73128 10.0625C9.78186 10.0667 15 10.1768 15 13.0392ZM7.50095 11.2702C3.46591 11.2702 1.42045 11.8596 1.42045 13.0231C1.42045 14.1971 3.46591 14.7922 7.50095 14.7922C11.535 14.7922 13.5795 14.2028 13.5795 13.0392C13.5795 11.8652 11.535 11.2702 7.50095 11.2702ZM7.50095 0C10.2737 0 12.5284 1.91803 12.5284 4.27571C12.5284 6.63338 10.2737 8.55061 7.50095 8.55061H7.47064C4.7036 8.54336 2.46212 6.62453 2.47156 4.27329C2.47156 1.91803 4.72727 0 7.50095 0ZM7.50095 1.14985C5.47348 1.14985 3.82384 2.55174 3.82384 4.27571C3.81723 5.99404 5.45455 7.39512 7.47348 7.40156L7.50095 7.97649V7.40156C9.52746 7.40156 11.1761 5.99887 11.1761 4.27571C11.1761 2.55174 9.52746 1.14985 7.50095 1.14985Z" fill="#574964"/>
</svg>
