<svg width="26" height="22" viewBox="0 0 26 22" fill="none" xmlns="http://www.w3.org/2000/svg">
<path d="M24.898 7.41609H19.5041L16.4783 0.459001C16.31 0.071915 15.861 -0.104979 15.4754 0.0641641C15.0899 0.233205 14.9138 0.684133 15.0822 1.07127L17.8417 7.41614H8.15832L10.9178 1.07127C11.0861 0.684133 10.9101 0.233256 10.5246 0.0641641C10.1391 -0.104979 9.68998 0.071813 9.5217 0.459001L6.49595 7.41609H1.10203C0.396424 7.41609 -0.127232 8.05752 0.027143 8.73272L2.86759 21.1561C2.98037 21.6494 3.42694 22 3.94247 22H22.0575C22.5731 22 23.0196 21.6494 23.1324 21.1561L25.9729 8.73272C26.1272 8.05758 25.6035 7.41609 24.898 7.41609ZM6.63926 9.76196C6.53749 9.76196 6.43405 9.74135 6.33477 9.69781C5.94924 9.52877 5.77318 9.07789 5.94157 8.6907L6.51377 7.37499H8.17615L7.33765 9.30292C7.21268 9.59047 6.93287 9.76196 6.63926 9.76196ZM9.19141 17.9206C9.19141 18.343 8.85037 18.6855 8.4297 18.6855C8.00903 18.6855 7.66798 18.343 7.66798 17.9206V12.3114C7.66798 11.889 8.00903 11.5465 8.4297 11.5465C8.85037 11.5465 9.19141 11.889 9.19141 12.3114V17.9206ZM13.7617 17.9206C13.7617 18.343 13.4207 18.6855 13 18.6855C12.5793 18.6855 12.2383 18.343 12.2383 17.9206V12.3114C12.2383 11.889 12.5793 11.5465 13 11.5465C13.4207 11.5465 13.7617 11.889 13.7617 12.3114V17.9206ZM18.332 17.9206C18.332 18.343 17.991 18.6855 17.5703 18.6855C17.1496 18.6855 16.8086 18.343 16.8086 17.9206V12.3114C16.8086 11.889 17.1496 11.5465 17.5703 11.5465C17.991 11.5465 18.332 11.889 18.332 12.3114V17.9206ZM19.6652 9.69781C19.566 9.74135 19.4625 9.76196 19.3607 9.76196C19.0671 9.76196 18.7873 9.59052 18.6623 9.30297L17.8238 7.37504H19.4862L20.0584 8.69075C20.2268 9.07789 20.0507 9.52877 19.6652 9.69781Z" fill="#9F8383"/>
</svg>
