<svg width="21" height="18" viewBox="0 0 21 18" fill="none" xmlns="http://www.w3.org/2000/svg">
<path d="M19.3341 1.76153C18.247 0.625613 16.7554 0 15.1336 0C13.9214 0 12.8113 0.369224 11.834 1.09733C11.3408 1.46486 10.894 1.9145 10.5 2.43932C10.1062 1.91466 9.65918 1.46486 9.16587 1.09733C8.18871 0.369224 7.07856 0 5.86636 0C4.24464 0 2.75285 0.625613 1.66578 1.76153C0.591682 2.88418 0 4.41788 0 6.08032C0 7.79138 0.661858 9.35765 2.08282 11.0096C3.35399 12.4873 5.18095 13.9873 7.29662 15.7243C8.01904 16.3175 8.83791 16.9899 9.68818 17.7061C9.9128 17.8957 10.201 18 10.5 18C10.7988 18 11.0872 17.8957 11.3115 17.7064C12.1618 16.99 12.9811 16.3173 13.7039 15.7238C15.8192 13.9872 17.6462 12.4873 18.9173 11.0094C20.3383 9.35765 21 7.79138 21 6.08016C21 4.41788 20.4083 2.88418 19.3341 1.76153Z" fill="#D70000"/>
</svg>
